<svg height="1966" width="720" xmlns="http://www.w3.org/2000/svg">
<rect height="1966" fill="#555" width="720"></rect>
<text fill="#7f7" font-family="Courier New" font-size="12" xml:space="preserve">
<tspan x="10" y="26"></tspan>
<tspan x="10" y="42">&gt; npmdoc-webpack@0.0.2 test /home/travis/build/npmdoc/node-npmdoc-webpack</tspan>
<tspan x="10" y="58">&gt; (set -e; export PORT=$(utility2 shServerPortRandom); utility2 test test.js)</tspan>
<tspan x="10" y="74"></tspan>
<tspan x="10" y="90"></tspan>
<tspan x="10" y="106">[MODE_BUILD=npmTest] - 2017-03-25T18:13:40Z - npm-testing /home/travis/build/npmdoc/node-npmdoc-\</tspan>
<tspan x="10" y="122">webpack</tspan>
<tspan x="10" y="138"></tspan>
<tspan x="10" y="154"></tspan>
<tspan x="10" y="170">covering $ /home/travis/.nvm/versions/node/v6.10.1/bin/node /home/travis/build/npmdoc/node-npmdo\</tspan>
<tspan x="10" y="186">c-webpack/test.js</tspan>
<tspan x="10" y="202">merging file:///home/travis/build/npmdoc/node-npmdoc-webpack/tmp/build/test-report.json to test-\</tspan>
<tspan x="10" y="218">report</tspan>
<tspan x="10" y="234">&gt; server listening on http-port 44232</tspan>
<tspan x="10" y="250">created apidoc file:///home/travis/build/npmdoc/node-npmdoc-webpack/tmp/build/apidoc.html</tspan>
<tspan x="10" y="266"></tspan>
<tspan x="10" y="282"></tspan>
<tspan x="10" y="298">browserTest - created electron entry-page /home/travis/build/npmdoc/node-npmdoc-webpack/tmp/elec\</tspan>
<tspan x="10" y="314">tron.15b06ac8e7c0.a9d1811a000f.html</tspan>
<tspan x="10" y="330"></tspan>
<tspan x="10" y="346">Xlib:  extension "RANDR" missing on display ":99.0".</tspan>
<tspan x="10" y="362">merging file:///home/travis/build/npmdoc/node-npmdoc-webpack/tmp/build/test-report.json to test-\</tspan>
<tspan x="10" y="378">report</tspan>
<tspan x="10" y="394">Xlib:  extension "RANDR" missing on display ":99.0".</tspan>
<tspan x="10" y="410">[4693:0325/181344:WARNING:audio_manager.cc(314)] Multiple instances of AudioManager detected</tspan>
<tspan x="10" y="426">[4693:0325/181344:WARNING:audio_manager.cc(275)] Multiple instances of AudioManager detected</tspan>
<tspan x="10" y="442">[4712:0325/181344:ERROR:sandbox_linux.cc(343)] InitializeSandbox() called with multiple threads \</tspan>
<tspan x="10" y="458">in process gpu-process. </tspan>
<tspan x="10" y="474">[4693:0325/181344:ERROR:browser_gpu_channel_host_factory.cc(131)] Failed to create channel.</tspan>
<tspan x="10" y="490"></tspan>
<tspan x="10" y="506">browserTest - opened url file:///home/travis/build/npmdoc/node-npmdoc-webpack/tmp/build/apidoc.h\</tspan>
<tspan x="10" y="522">tml</tspan>
<tspan x="10" y="538"></tspan>
<tspan x="10" y="554">[node test-case 1 of 6 passed] - testCase_buildLib_default</tspan>
<tspan x="10" y="570">[node test-case 2 of 6 passed] - testCase_buildReadme_default</tspan>
<tspan x="10" y="586">[node test-case 3 of 6 passed] - testCase_buildTest_default</tspan>
<tspan x="10" y="602"></tspan>
<tspan x="10" y="618">browserTest - created electron entry-page /home/travis/build/npmdoc/node-npmdoc-webpack/tmp/elec\</tspan>
<tspan x="10" y="634">tron.15b06ac98f60.f8b2f3ac9553b.html</tspan>
<tspan x="10" y="650"></tspan>
<tspan x="10" y="666">Xlib:  extension "RANDR" missing on display ":99.0".</tspan>
<tspan x="10" y="682">&gt; server listening on http-port 51268</tspan>
<tspan x="10" y="698">merging file:///home/travis/build/npmdoc/node-npmdoc-webpack/tmp/build/test-report.json to test-\</tspan>
<tspan x="10" y="714">report</tspan>
<tspan x="10" y="730">Xlib:  extension "RANDR" missing on display ":99.0".</tspan>
<tspan x="10" y="746">[4761:0325/181347:WARNING:audio_manager.cc(314)] Multiple instances of AudioManager detected</tspan>
<tspan x="10" y="762">[4761:0325/181347:WARNING:audio_manager.cc(275)] Multiple instances of AudioManager detected</tspan>
<tspan x="10" y="778">[4783:0325/181347:ERROR:sandbox_linux.cc(343)] InitializeSandbox() called with multiple threads \</tspan>
<tspan x="10" y="794">in process gpu-process. </tspan>
<tspan x="10" y="810">[4761:0325/181347:ERROR:browser_gpu_channel_host_factory.cc(131)] Failed to create channel.</tspan>
<tspan x="10" y="826"></tspan>
<tspan x="10" y="842">browserTest - opened url http://127.0.0.1:44232?modeTest=1</tspan>
<tspan x="10" y="858"></tspan>
<tspan x="10" y="874">[4761:0325/181348:INFO:CONSOLE(203)] "----------|-----------|-----------|-----------|-----------\</tspan>
<tspan x="10" y="890">|</tspan>
<tspan x="10" y="906">File      |   % Stmts |% Branches |   % Funcs |   % Lines |</tspan>
<tspan x="10" y="922">----------|-----------|-----------|-----------|-----------|</tspan>
<tspan x="10" y="938">----------|-----------|-----------|-----------|-----------|</tspan>
<tspan x="10" y="954">All files |       100 |       100 |       100 |       100 |</tspan>
<tspan x="10" y="970">----------|-----------|-----------|-----------|-----------|</tspan>
<tspan x="10" y="986">", source: file:///home/travis/build/npmdoc/node-npmdoc-webpack/tmp/electron.15b06ac98f60.f8b2f3\</tspan>
<tspan x="10" y="1002">ac9553b.html (203)</tspan>
<tspan x="10" y="1018">[4761:0325/181348:INFO:CONSOLE(203)] "created coverage file:///tmp/build/coverage.html/index.htm\</tspan>
<tspan x="10" y="1034">l", source: file:///home/travis/build/npmdoc/node-npmdoc-webpack/tmp/electron.15b06ac98f60.f8b2f\</tspan>
<tspan x="10" y="1050">3ac9553b.html (203)</tspan>
<tspan x="10" y="1066"></tspan>
<tspan x="10" y="1082">browserTest - created screen-capture file:///home/travis/build/npmdoc/node-npmdoc-webpack/tmp/bu\</tspan>
<tspan x="10" y="1098">ild/screen-capture.npmTest.browser._2Fhome_2Ftravis_2Fbuild_2Fnpmdoc_2Fnode-npmdoc-webpack_2Ftmp\</tspan>
<tspan x="10" y="1114">_2Fbuild_2Fapidoc.html.png</tspan>
<tspan x="10" y="1130"></tspan>
<tspan x="10" y="1146"></tspan>
<tspan x="10" y="1162">browserTest - exit-code 0 - file:///home/travis/build/npmdoc/node-npmdoc-webpack/tmp/build/apido\</tspan>
<tspan x="10" y="1178">c.html</tspan>
<tspan x="10" y="1194"></tspan>
<tspan x="10" y="1210">[node test-case 4 of 6 passed] - testCase_buildApidoc_default</tspan>
<tspan x="10" y="1226">[node test-case 5 of 6 passed] - testCase_buildApp_default</tspan>
<tspan x="10" y="1242"></tspan>
<tspan x="10" y="1258">browserTest - created screen-capture file:///home/travis/build/npmdoc/node-npmdoc-webpack/tmp/bu\</tspan>
<tspan x="10" y="1274">ild/screen-capture.npmTest.browser..png</tspan>
<tspan x="10" y="1290"></tspan>
<tspan x="10" y="1306"></tspan>
<tspan x="10" y="1322">browserTest - exit-code 0 - http://127.0.0.1:44232?modeTest=1</tspan>
<tspan x="10" y="1338"></tspan>
<tspan x="10" y="1354"></tspan>
<tspan x="10" y="1370">browserTest - merged coverage from /home/travis/build/npmdoc/node-npmdoc-webpack/tmp/coverage.np\</tspan>
<tspan x="10" y="1386">mTest.browser.%2F.json</tspan>
<tspan x="10" y="1402"></tspan>
<tspan x="10" y="1418"></tspan>
<tspan x="10" y="1434">browserTest - merging test-report from /home/travis/build/npmdoc/node-npmdoc-webpack/tmp/test-re\</tspan>
<tspan x="10" y="1450">port.npmTest.browser.%2F.json</tspan>
<tspan x="10" y="1466"></tspan>
<tspan x="10" y="1482">[node test-case 6 of 6 passed] - testCase_webpage_default</tspan>
<tspan x="10" y="1498">----------------------------|-----------|-----------|-----------|-----------|</tspan>
<tspan x="10" y="1514">File                        |   % Stmts |% Branches |   % Funcs |   % Lines |</tspan>
<tspan x="10" y="1530">----------------------------|-----------|-----------|-----------|-----------|</tspan>
<tspan x="10" y="1546">   node-npmdoc-webpack/     |       100 |       100 |       100 |       100 |</tspan>
<tspan x="10" y="1562">      example.js            |       100 |       100 |       100 |       100 |</tspan>
<tspan x="10" y="1578">      lib.npmdoc_webpack.js |       100 |       100 |       100 |       100 |</tspan>
<tspan x="10" y="1594">      test.js               |       100 |       100 |       100 |       100 |</tspan>
<tspan x="10" y="1610">----------------------------|-----------|-----------|-----------|-----------|</tspan>
<tspan x="10" y="1626">All files                   |       100 |       100 |       100 |       100 |</tspan>
<tspan x="10" y="1642">----------------------------|-----------|-----------|-----------|-----------|</tspan>
<tspan x="10" y="1658"></tspan>
<tspan x="10" y="1674">created coverage file:///home/travis/build/npmdoc/node-npmdoc-webpack/tmp/build/coverage.html/in\</tspan>
<tspan x="10" y="1690">dex.html</tspan>
<tspan x="10" y="1706">merging file:///home/travis/build/npmdoc/node-npmdoc-webpack/tmp/build/test-report.json to test-\</tspan>
<tspan x="10" y="1722">report</tspan>
<tspan x="10" y="1738"></tspan>
<tspan x="10" y="1754">-------------------------------------------------------</tspan>
<tspan x="10" y="1770">| test-report - buildNpmdoc - node - linux v6.10.1 - 2017-03-25T18:13:28.204Z</tspan>
<tspan x="10" y="1786">|   22853 ms            0 failed        6 passed      |</tspan>
<tspan x="10" y="1802">-------------------------------------------------------</tspan>
<tspan x="10" y="1818"></tspan>
<tspan x="10" y="1834">created test-report file:///home/travis/build/npmdoc/node-npmdoc-webpack/tmp/build/test-report.h\</tspan>
<tspan x="10" y="1850">tml</tspan>
<tspan x="10" y="1866"></tspan>
<tspan x="10" y="1882"></tspan>
<tspan x="10" y="1898">npmTest - 0 failed tests</tspan>
<tspan x="10" y="1914"></tspan>
<tspan x="10" y="1930"></tspan>
<tspan x="10" y="1946">[MODE_BUILD=npmTest] - 2017-03-25T18:13:54Z - EXIT_CODE - 0</tspan>
</text>
</svg>
